<?xml version="1.0" standalone="no"?>
<svg width="420" height="180" version="1.1" xmlns="http://www.w3.org/2000/svg">
    <style>
        text { font-size: 30px; font-weight: bold; }
    </style>

    <g transform="translate(10, 10)">
        <path d="M    0   20
                 C    0   10,   10    0,   20    0
                 L   80    0
                 L  120   40
                 L  120  140
                 C  120  150,  110  160,  100  160
                 L   20  160
                 C   10  160,    0  150,    0  140
                 Z"


              stroke="black"
              stroke-width="4"

              fill="white"
        />

        <path d="M 80 0 V 40 H 120"
              stroke="black"
              stroke-width="2"
              fill="none"
        />

        <g>
            <text x="60" y="140" text-anchor="middle" fill="black">&lt;SVG&gt;</text>
        </g>
    </g>

    <g transform="translate(290, 10)">
        <path d="M    0   20
                 C    0   10,   10    0,   20    0
                 L   80    0
                 L  120   40
                 L  120  140
                 C  120  150,  110  160,  100  160
                 L   20  160
                 C   10  160,    0  150,    0  140
                 Z"


              stroke="black"
              stroke-width="4"

              fill="white"
        />

        <path d="M 80 0 V 40 H 120"
              stroke="black"
              stroke-width="2"
              fill="none"
        />

        <g>
            <text x="60" y="140" text-anchor="middle" fill="black">&lt;PNG&gt;</text>
        </g>
    </g>

    <g transform="translate(120,60)">
        <path d="M    0   20
                 H  150
                 V    0
                 L  185   30
                 L  150   60
                 V   40
                 H    0
                 Z"

              stroke="black"
              fill="white"
        />
    </g>

    <g transform="translate(160, 40)">
        <path d="M 0 0 H 100 V 100 H 0 Z"

              stroke="black"
              stroke-width="3"

              fill="yellow"
        />

        <text x="60" y="80">JS</text>
    </g>
</svg>