<?xml version="1.0" encoding="UTF-8"?>
<!-- Generator: Adobe Illustrator 19.1.0, SVG Export Plug-In . SVG Version: 6.00 Build 0)  -->
<svg xmlns="http://www.w3.org/2000/svg" xmlns:xlink="http://www.w3.org/1999/xlink" xmlns:dc="http://purl.org/dc/elements/1.1/" xmlns:cc="http://creativecommons.org/ns#" xmlns:rdf="http://www.w3.org/1999/02/22-rdf-syntax-ns#" version="1.1" id="DESIGNS" x="0px" y="0px" width="160px" height="160px" viewBox="0 0 32 32" style="enable-background:new 0 0 32 32;" xml:space="preserve">
<title property="dc:title">to tag</title><desc property="dc:description">An icon for "tag" from the Avocado series on to [icon]. Downloaded from http://www.toicon.com/icons/avocado_tag by 81.245.32.61 on 2017-10-29. Licensed CC-BY, see http://toicon.com/license/ for details.</desc>
<g>
	<polygon class="avocado_zes" points="2.5,13.793 2.5,2.5 13.795,2.5 29.293,18 18,29.293  " style="fill: #FFFAEE;"/>
	<g>
		<rect x="5" y="5" class="avocado_negentien" width="4" height="4" style="fill: #E0A838;"/>
	</g>
	<path class="avocado_een" d="M14,2H2v12l16,16l12-12L14,2z M3,13.586V3h10.586l15,15L18,28.586L3,13.586z M6,6h2v2H6V6z" style="fill: #231F20;"/>
	<g>
		<g>
			<path class="avocado_vijf" d="M20.354,17.646l-0.707,0.707l-6-6l0.707-0.707L20.354,17.646z M11.646,14.354l6,6     l0.707-0.707l-6-6L11.646,14.354z" style="fill: #DBD2C1;"/>
		</g>
	</g>
</g>
<metadata><work rdf:about=""><format>image/svg+xml</format><type rdf:resource="http://purl.org/dc/dcmitype/StillImage"/><license rdf:resource="http://creativecommons.org/licenses/by/4.0/"/><attributionname>Shannon E Thomas</attributionname><attributionurl>http://www.toicon.com/icons/avocado_tag</attributionurl></work></metadata></svg>
